<?xml version="1.0" encoding="utf-8"?>
<!-- Generator: Adobe Illustrator 16.0.0, SVG Export Plug-In . SVG Version: 6.00 Build 0)  -->
<!DOCTYPE svg PUBLIC "-//W3C//DTD SVG 1.1//EN" "http://www.w3.org/Graphics/SVG/1.1/DTD/svg11.dtd">
<svg version="1.1" id="Layer_1" xmlns="http://www.w3.org/2000/svg" xmlns:xlink="http://www.w3.org/1999/xlink" x="0px" y="0px"
	 width="565.981px" height="565.861px" viewBox="23.189 89.069 565.981 565.861"
	 enable-background="new 23.189 89.069 565.981 565.861" xml:space="preserve">
<g id="Edges">
</g>
<g id="Background">
	
		<radialGradient id="SVGID_1_" cx="55.917" cy="764.6387" r="684.5226" gradientTransform="matrix(1.1936 -0.0626 -0.0532 -1.0146 7.3688 1382.343)" gradientUnits="userSpaceOnUse">
		<stop  offset="0" style="stop-color:#FED576"/>
		<stop  offset="0.2634" style="stop-color:#F47133"/>
		<stop  offset="0.6091" style="stop-color:#BC3081"/>
		<stop  offset="1" style="stop-color:#4C63D2"/>
	</radialGradient>
	<polygon fill="url(#SVGID_1_)" points="23.189,162.94 23.189,200.233 23.189,563.489 23.189,581.061 23.189,654.931 
		97.179,654.931 100.048,654.931 477.886,654.931 515.18,654.931 589.17,654.931 589.17,581.061 589.17,543.767 589.17,200.233 
		589.17,162.94 589.17,89.069 515.18,89.069 477.886,89.069 134.353,89.069 97.179,89.069 23.189,89.069 	"/>
</g>
<g id="Symbol">
	<g>
		<path fill="#FFFFFF" d="M304.924,233.224c45.303,0,50.682,0.12,68.611,0.957c16.495,0.717,25.58,3.466,31.557,5.857
			c7.889,3.108,13.626,6.813,19.483,12.67c5.977,5.977,9.563,11.594,12.67,19.483c2.271,5.977,5.14,14.941,5.857,31.556
			c0.837,17.93,0.956,23.309,0.956,68.611c0,45.303-0.119,50.682-0.956,68.611c-0.718,16.495-3.467,25.579-5.857,31.556
			c-3.107,7.89-6.813,13.627-12.67,19.484c-5.977,5.977-11.595,9.563-19.483,12.67c-5.977,2.271-14.941,5.14-31.557,5.857
			c-17.93,0.836-23.309,0.956-68.611,0.956c-45.302,0-50.681-0.12-68.61-0.956c-16.496-0.718-25.58-3.467-31.557-5.857
			c-7.889-3.107-13.626-6.813-19.483-12.67c-5.977-5.977-9.563-11.595-12.67-19.484c-2.271-5.977-5.14-14.941-5.857-31.556
			c-0.837-17.93-0.956-23.309-0.956-68.611c0-45.302,0.119-50.681,0.956-68.611c0.717-16.495,3.466-25.58,5.857-31.556
			c3.108-7.889,6.813-13.626,12.67-19.483c5.977-5.977,11.595-9.563,19.483-12.67c5.977-2.271,14.941-5.14,31.557-5.857
			C254.243,233.463,259.622,233.224,304.924,233.224 M304.924,202.624c-46.139,0-51.876,0.239-70.045,1.076
			c-18.049,0.836-30.361,3.705-41.238,7.889c-11.116,4.303-20.679,10.16-30.122,19.604c-9.443,9.443-15.3,18.886-19.603,30.122
			c-4.184,10.758-7.052,23.189-7.889,41.238c-0.836,18.169-1.076,23.906-1.076,70.045c0,46.139,0.239,51.877,1.076,70.045
			c0.837,18.05,3.706,30.361,7.889,41.238c4.303,11.117,10.16,20.68,19.603,30.122c9.443,9.443,18.886,15.3,30.122,19.604
			c10.758,4.184,23.189,7.052,41.238,7.889c18.169,0.837,23.906,1.076,70.045,1.076c46.14,0,51.877-0.239,70.046-1.076
			c18.049-0.837,30.36-3.705,41.238-7.889c11.116-4.304,20.679-10.16,30.122-19.604c9.442-9.442,15.3-18.886,19.603-30.122
			c4.184-10.758,7.053-23.188,7.89-41.238c0.836-18.168,1.075-23.906,1.075-70.045c0-46.139-0.239-51.876-1.075-70.045
			c-0.837-18.049-3.706-30.361-7.89-41.238c-4.303-11.116-10.16-20.679-19.603-30.122c-9.443-9.443-18.887-15.3-30.122-19.604
			c-10.758-4.184-23.189-7.052-41.238-7.889C356.801,202.863,351.063,202.624,304.924,202.624L304.924,202.624z"/>
		<path fill="#FFFFFF" d="M304.924,285.22c-48.171,0-87.138,39.087-87.138,87.138c0,48.052,39.086,87.139,87.138,87.139
			c48.052,0,87.139-39.087,87.139-87.139C392.063,324.307,353.096,285.22,304.924,285.22z M304.924,429.017
			c-31.317,0-56.538-25.341-56.538-56.539c0-31.317,25.341-56.538,56.538-56.538c31.198,0,56.539,25.34,56.539,56.538
			C361.582,403.676,336.241,429.017,304.924,429.017z"/>
		<circle fill="#FFFFFF" cx="395.648" cy="281.874" r="20.32"/>
	</g>
</g>
</svg>
